<?xml version="1.0" encoding="UTF-8"?>
<svg id="Layer_2" data-name="Layer 2" xmlns="http://www.w3.org/2000/svg" viewBox="0 0 607.55 612.22">
  <defs>
    <style>
      .cls-1 {
        fill: #fff;
      }

      .cls-2 {
        fill: red;
      }
    </style>
  </defs>
  <g id="Layer_1-2" data-name="Layer 1">
    <g>
      <path class="cls-1" d="M607.55,321.56l-78.06-28.75c-5.03-27.24-14.37-52.65-28.99-76.05-6.66,7.22-14.17,11.25-23.9,13.47,10.74,18.41,19.14,37.21,23.84,58.82l-60.69-24.65,23,42.6,38.65,15.19-30.39,27.83-48.78-88.74,32.87-33.37c-10.36-4.04-17.22-11.4-22.4-20.56l-26.12,25.91-50.72-92.76c28.27,6.92,52.49,20.21,74.78,37.46,3.37-9.15,8.53-16.42,16.75-22.16-30.64-25.06-66.96-40.31-105.35-47.26L303.8.18v-.18l-.03.09-.03-.09v.18l-38.24,108.37c-38.39,6.96-74.71,22.21-105.35,47.26,8.22,5.74,13.39,13.02,16.75,22.16,22.29-17.25,46.51-30.54,74.78-37.46l-50.72,92.76-26.12-25.91c-5.18,9.16-12.04,16.52-22.4,20.56l32.87,33.37-48.78,88.74-30.39-27.83,38.65-15.19,23-42.6-60.69,24.65c4.7-21.62,13.09-40.41,23.84-58.82-9.73-2.23-17.24-6.25-23.9-13.47-14.62,23.4-23.96,48.82-28.99,76.05L0,321.56l120.93,55.92L15.23,570.74c22.82-13.76,179.05-124.79,179.05-124.79l68.09,65.48,41.4,100.78h0s0,0,0,0h0s0,0,0,0l41.4-100.78,68.09-65.48s156.23,111.03,179.05,124.79l-105.7-193.25,120.93-55.92ZM318.32,135.33l65.77,119.99c-1.66,3.1-3.87,5.54-6.55,6.45l-59.3-104.73c0-7.49.08-14.52.08-21.71ZM317.73,212.85l40,69.84-18.23,18.27c-7.91-5.89-13.73-8.69-21.96-11.34l.19-76.77ZM303.76,386.54c-23.37-.02-42.31-18.97-42.31-42.34s18.94-42.33,42.31-42.34v-.38s0,.38,0,.38c0,0,.01,0,.02,0s.01,0,.02,0v-.38.38c23.37.02,42.31,18.97,42.31,42.34s-18.94,42.33-42.31,42.34M303.79,386.54s0,0-.01,0,0,0-.01,0M290,289.63c-8.24,2.65-14.05,5.45-21.96,11.34l-18.23-18.27,40-69.84.19,76.77ZM289.22,135.33c0,7.19.08,14.22.08,21.71l-59.3,104.73c-2.68-.91-4.89-3.35-6.55-6.45l65.77-119.99ZM98.68,482.13l45.5-83.54,27.75,26.08-73.25,57.46ZM159.26,371.49l47.81-86.36,6.19,5.59-41.95,73.34,20.73,19.51,41.74-73.26,16.76,16.96c-3.81,12.13-3.62,22.84.25,34.73l-55.08,43.64-36.44-34.15ZM289.95,495.76l-72.07-68.75,49.87-39.5c7.14,5.13,12.8,8.48,22.25,10.9l-.05,97.36ZM317.59,495.76l-.05-97.36c9.45-2.41,15.1-5.77,22.25-10.9l49.87,39.5-72.07,68.75ZM411.84,405.64l-55.08-43.64c3.87-11.89,4.07-22.6.25-34.73l16.76-16.96,41.74,73.26,20.73-19.51-41.95-73.34,6.19-5.59,47.81,86.36-36.44,34.15ZM508.87,482.13l-73.25-57.46,27.75-26.08,45.5,83.54Z"/>
      <g>
        <circle class="cls-2" cx="138.36" cy="190.63" r="31.98"/>
        <circle class="cls-2" cx="469.19" cy="190.63" r="31.97"/>
        <circle class="cls-2" cx="303.82" cy="344.29" r="33.65"/>
      </g>
    </g>
  </g>
</svg>
