<?xml version="1.0" encoding="UTF-8"?>
<svg id="Layer_2" data-name="Layer 2" xmlns="http://www.w3.org/2000/svg" viewBox="0 0 1478.69 509.69">
  <defs>
    <style>
      .cls-1 {
        letter-spacing: 0em;
      }

      .cls-2 {
        letter-spacing: -.08em;
      }

      .cls-3, .cls-4 {
        fill: red;
      }

      .cls-5 {
        letter-spacing: -.04em;
      }

      .cls-6 {
        fill: #2e2e2e;
        font-family: Inter-Regular, Inter;
        font-size: 43.74px;
        font-variation-settings: 'wght' 400, 'slnt' 0;
        letter-spacing: .41em;
      }

      .cls-7 {
        font-size: 178.1px;
      }

      .cls-7, .cls-4 {
        font-family: AerosRegular, Aeros;
      }

      .cls-8 {
        letter-spacing: .05em;
      }
    </style>
  </defs>
  <g id="Layer_1-2" data-name="Layer 1">
    <g>
      <text class="cls-7" transform="translate(553.13 275.97)"><tspan class="cls-2" x="0" y="0">A</tspan><tspan class="cls-8" x="193.41" y="0">TLAS</tspan></text>
      <text class="cls-4" transform="translate(746.65 337.45)"><tspan x="0" y="0">NEXIUM </tspan><tspan class="cls-5" x="444.67" y="0">C</tspan><tspan class="cls-1" x="511.96" y="0">ORE</tspan></text>
      <text class="cls-6" transform="translate(748.97 386.56)"><tspan x="0" y="0">SAAS DEVELOPMENT</tspan></text>
    </g>
    <g>
      <path d="M505.8,267.71l-64.98-23.93c-4.18-22.67-11.96-43.83-24.13-63.32-5.55,6.01-11.79,9.36-19.9,11.22,8.95,15.33,15.93,30.97,19.84,48.97l-50.52-20.52,19.15,35.46,32.18,12.64-25.3,23.17-40.61-73.88,27.36-27.78c-8.62-3.36-14.33-9.49-18.65-17.12l-21.75,21.57-42.23-77.23c23.54,5.76,43.7,16.83,62.26,31.19,2.8-7.62,7.1-13.67,13.95-18.45-25.51-20.86-55.75-33.56-87.7-39.35L252.93.15v-.15l-.03.07-.03-.07v.15l-31.84,90.22c-31.96,5.79-62.2,18.49-87.7,39.35,6.84,4.78,11.15,10.84,13.95,18.45,18.56-14.36,38.72-25.43,62.26-31.19l-42.23,77.23-21.75-21.57c-4.31,7.63-10.02,13.75-18.65,17.12l27.36,27.78-40.61,73.88-25.3-23.17,32.18-12.64,19.15-35.46-50.52,20.52c3.91-18,10.9-33.64,19.84-48.97-8.1-1.85-14.35-5.2-19.9-11.22-12.17,19.48-19.95,40.64-24.13,63.32L0,267.71l100.68,46.56L12.68,475.16c19-11.46,149.06-103.89,149.06-103.89l56.69,54.52,34.47,83.9h0s0,0,0,0h0s0,0,0,0l34.47-83.9,56.69-54.52s130.06,92.43,149.06,103.89l-88-160.89,100.68-46.56ZM265.02,112.66l54.75,99.89c-1.38,2.58-3.22,4.61-5.45,5.37l-49.37-87.19c0-6.24.07-12.09.07-18.07ZM264.52,177.21l33.31,58.15-15.18,15.21c-6.58-4.9-11.43-7.24-18.29-9.44l.16-63.92ZM252.89,321.81c-19.46-.01-35.23-15.79-35.23-35.25s15.77-35.24,35.23-35.25v-.32s0,.32,0,.32c0,0,0,0,.01,0s0,0,.01,0v-.32.32c19.46.02,35.23,15.79,35.23,35.25s-15.77,35.24-35.23,35.25M252.91,321.81s0,0-.01,0,0,0-.01,0M241.44,241.12c-6.86,2.2-11.7,4.54-18.29,9.44l-15.18-15.21,33.3-58.15.16,63.92ZM240.79,112.66c0,5.99.07,11.84.07,18.07l-49.37,87.19c-2.23-.76-4.07-2.79-5.45-5.37l54.75-99.89ZM82.15,401.39l37.88-69.55,23.1,21.71-60.98,47.84ZM132.59,309.28l39.8-71.9,5.15,4.65-34.92,61.06,17.26,16.24,34.75-60.99,13.95,14.12c-3.17,10.1-3.01,19.01.21,28.91l-45.86,36.34-30.34-28.43ZM241.4,412.74l-60-57.24,41.52-32.88c5.95,4.27,10.66,7.06,18.52,9.07l-.04,81.05ZM264.4,412.74l-.04-81.05c7.86-2.01,12.57-4.8,18.52-9.07l41.52,32.88-60,57.24ZM342.87,337.71l-45.86-36.34c3.22-9.9,3.38-18.81.21-28.91l13.95-14.12,34.75,60.99,17.26-16.24-34.92-61.06,5.15-4.65,39.8,71.9-30.34,28.43ZM423.65,401.39l-60.98-47.84,23.1-21.71,37.88,69.55Z"/>
      <g>
        <circle class="cls-3" cx="115.19" cy="158.71" r="26.63"/>
        <circle class="cls-3" cx="390.62" cy="158.7" r="26.62"/>
        <circle class="cls-3" cx="252.94" cy="286.63" r="28.02"/>
      </g>
    </g>
  </g>
</svg>
